<?xml version="1.0" standalone="no"?>
<!DOCTYPE svg PUBLIC "-//W3C//DTD SVG 20010904//EN"
 "http://www.w3.org/TR/2001/REC-SVG-20010904/DTD/svg10.dtd">
<svg version="1.0" xmlns="http://www.w3.org/2000/svg"
 width="840.000000pt" height="333.000000pt" viewBox="0 0 840.000000 333.000000"
 preserveAspectRatio="xMidYMid meet">
<metadata>
Created by potrace 1.10, written by Peter Selinger 2001-2011
</metadata>
<g transform="translate(0.000000,333.000000) scale(0.100000,-0.100000)"
fill="#ffffff" stroke="none">
<path d="M6167 3136 c-45 -42 -47 -88 -6 -140 17 -22 29 -26 69 -26 42 0 52 4
76 33 25 29 32 32 81 31 64 -2 76 -11 112 -86 19 -38 35 -57 59 -67 37 -17 44
-52 13 -73 -34 -24 -112 -122 -133 -168 -11 -25 -28 -58 -36 -75 -23 -44 -23
-255 0 -310 9 -22 19 -47 23 -55 26 -64 115 -172 186 -228 58 -45 137 -95 169
-108 8 -3 29 -11 45 -19 17 -7 39 -16 50 -18 11 -3 38 -12 60 -20 l40 -15 5
-699 5 -698 145 0 145 0 3 697 2 698 42 20 c23 11 48 20 55 20 18 0 139 60
193 95 110 72 185 155 238 260 60 122 79 246 47 322 -8 19 -15 46 -15 58 0 12
-7 28 -15 35 -8 7 -15 18 -15 26 0 21 -60 104 -117 163 -29 29 -53 59 -53 66
0 7 18 25 40 40 24 16 40 36 40 47 0 65 54 108 134 108 31 0 44 -7 73 -40 32
-35 42 -40 80 -40 37 0 49 5 74 32 37 42 39 85 3 127 -23 27 -32 31 -78 31
-53 0 -86 -19 -86 -49 0 -16 -33 -27 -103 -35 -72 -8 -104 -30 -112 -76 -9
-51 -34 -78 -85 -91 -49 -12 -62 -8 -159 46 -24 14 -51 25 -60 25 -9 0 -25 7
-35 15 -11 8 -32 15 -47 15 -14 0 -46 7 -69 15 -49 17 -186 20 -245 4 -22 -6
-59 -14 -83 -18 -24 -4 -48 -13 -54 -19 -7 -7 -22 -12 -34 -12 -12 0 -27 -7
-34 -15 -7 -8 -21 -15 -31 -15 -10 0 -21 -5 -24 -10 -10 -16 -74 -40 -105 -40
-65 0 -120 41 -120 89 0 11 -17 33 -37 50 -30 25 -47 31 -83 31 -41 0 -50 4
-88 45 -36 38 -48 45 -81 45 -26 0 -46 -7 -64 -24z m1050 -362 c21 -9 45 -20
53 -25 8 -5 20 -11 25 -13 6 -2 17 -7 25 -10 8 -3 29 -15 45 -26 17 -11 37
-23 46 -27 9 -5 82 -57 163 -118 160 -120 174 -139 135 -181 -28 -30 -235
-189 -299 -229 -63 -41 -165 -89 -231 -110 -53 -17 -58 -17 -115 0 -77 23
-173 69 -251 123 -102 68 -168 115 -173 122 -3 3 -30 25 -61 49 -62 45 -73 67
-55 102 11 22 260 220 301 240 11 5 34 18 50 28 28 19 64 36 145 74 46 21 149
21 197 1z"/>
<path d="M7036 2532 c-95 -67 -80 -214 27 -260 63 -27 142 -4 182 55 90 134
-77 298 -209 205z"/>
<path d="M345 1948 c-3 -13 -5 -345 -3 -739 l3 -716 28 -36 c50 -66 59 -67
444 -67 322 0 346 1 382 20 22 11 48 35 60 53 21 34 21 37 19 768 l-3 734
-145 0 -145 0 -5 -630 -5 -630 -160 0 -160 0 -5 630 -5 630 -147 3 c-146 3
-148 2 -153 -20z"/>
<path d="M2004 1957 c-2 -7 -3 -74 -2 -148 l3 -134 147 -5 c80 -3 150 -9 155
-13 4 -5 10 -291 13 -635 l5 -627 144 -3 c109 -2 146 1 153 10 4 7 8 293 8
634 0 558 2 622 16 628 9 3 78 6 155 6 86 0 139 4 139 10 3 90 0 272 -5 280
-4 6 -168 10 -466 10 -368 0 -461 -3 -465 -13z"/>
<path d="M3754 1960 c-32 -13 -82 -76 -89 -112 -3 -18 -4 -352 -3 -743 l3
-710 144 -3 c109 -2 146 1 153 10 4 7 8 146 8 308 0 217 3 299 12 308 15 15
275 17 298 2 13 -8 16 -58 20 -317 l5 -308 148 -3 147 -3 0 736 c0 817 4 771
-67 820 l-38 25 -360 -1 c-198 0 -369 -4 -381 -9z m530 -306 c13 -13 16 -42
16 -159 0 -132 -2 -145 -19 -155 -11 -5 -77 -10 -146 -10 -69 0 -135 5 -146
10 -17 10 -19 23 -19 158 0 102 4 152 12 160 8 8 56 12 149 12 112 0 141 -3
153 -16z"/>
<path d="M5327 1963 c-9 -8 -9 -1536 -1 -1557 5 -14 28 -16 150 -16 79 0 145
1 146 3 1 1 5 144 8 317 l5 315 265 5 c188 4 271 9 287 18 13 7 34 29 48 50
l25 37 0 364 c0 349 -1 365 -21 397 -11 18 -35 42 -53 53 -32 20 -47 21 -443
21 -225 0 -413 -3 -416 -7z m614 -303 c17 -10 19 -23 19 -161 l0 -149 -26 -10
c-28 -11 -245 -13 -281 -4 -23 6 -23 9 -23 164 0 117 3 160 13 163 24 10 278
7 298 -3z"/>
</g>
</svg>
